<svg xmlns="http://www.w3.org/2000/svg" xmlns:xlink="http://www.w3.org/1999/xlink" version="1.1" width="50" height="50" viewBox="0 0 1000 1000" xml:space="preserve">
<desc></desc>
<defs>
</defs>
<rect x="0" y="0" width="100%" height="100%" fill="#ffffff"></rect>
<g transform="matrix(9.04 0 0 9.04 500.25 487.0378)" id="381984">
<g style="" vector-effect="non-scaling-stroke">
		<g transform="matrix(0.1429 0 0 0.1429 -19.4924 42.6575)" id="222563">
<path style="stroke: none; stroke-width: 1; stroke-dasharray: none; stroke-linecap: butt; stroke-dashoffset: 0; stroke-linejoin: miter; stroke-miterlimit: 4; is-custom-font: none; font-file-url: none; fill: rgb(0,0,0); fill-rule: nonzero; opacity: 1;" transform=" translate(-213.55, -648.6)" d="M 219.8 642.7 h 3.2 l -4 11.8 h -3.2 l -2.2 -8 l -2.3 8 h -3.2 l -4 -11.8 h 3.3 l 2.3 8.6 l 2.3 -8.6 h 3 l 2.4 8.6 L 219.8 642.7 z" stroke-linecap="round"></path>
</g>
		<g transform="matrix(0.1429 0 0 0.1429 -16.821 42.6575)" id="484533">
<path style="stroke: none; stroke-width: 1; stroke-dasharray: none; stroke-linecap: butt; stroke-dashoffset: 0; stroke-linejoin: miter; stroke-miterlimit: 4; is-custom-font: none; font-file-url: none; fill: rgb(0,0,0); fill-rule: nonzero; opacity: 1;" transform=" translate(-232.25, -648.6)" d="M 238.5 642.7 h 3.2 l -4 11.8 h -3.2 l -2.2 -8 l -2.3 8 h -3.2 l -4 -11.8 h 3.3 l 2.3 8.6 l 2.3 -8.6 h 3 l 2.4 8.6 L 238.5 642.7 z" stroke-linecap="round"></path>
</g>
		<g transform="matrix(0.1429 0 0 0.1429 -14.1352 42.6575)" id="538662">
<path style="stroke: none; stroke-width: 1; stroke-dasharray: none; stroke-linecap: butt; stroke-dashoffset: 0; stroke-linejoin: miter; stroke-miterlimit: 4; is-custom-font: none; font-file-url: none; fill: rgb(0,0,0); fill-rule: nonzero; opacity: 1;" transform=" translate(-251.05, -648.6)" d="M 257.3 642.7 h 3.2 l -4 11.8 h -3.2 l -2.2 -8 l -2.3 8 h -3.2 l -4 -11.8 h 3.3 l 2.3 8.6 l 2.3 -8.6 h 3 l 2.4 8.6 L 257.3 642.7 z" stroke-linecap="round"></path>
</g>
		<g transform="matrix(0.1429 0 0 0.1429 -12.5856 43.3073)" id="629425">
<path style="stroke: none; stroke-width: 1; stroke-dasharray: none; stroke-linecap: butt; stroke-dashoffset: 0; stroke-linejoin: miter; stroke-miterlimit: 4; is-custom-font: none; font-file-url: none; fill: rgb(0,0,0); fill-rule: nonzero; opacity: 1;" transform=" translate(-261.9, -653.15)" d="M 262.9 652.1 c 0.3 0.3 0.4 0.6 0.4 1 s -0.1 0.8 -0.4 1.1 s -0.6 0.4 -1 0.4 s -0.8 -0.1 -1 -0.4 c -0.3 -0.3 -0.4 -0.6 -0.4 -1.1 c 0 -0.4 0.1 -0.8 0.4 -1 c 0.3 -0.3 0.6 -0.4 1 -0.4 S 262.6 651.9 262.9 652.1 z" stroke-linecap="round"></path>
</g>
		<g transform="matrix(0.1429 0 0 0.1429 -11.4998 42.6646)" id="9999">
<path style="stroke: none; stroke-width: 1; stroke-dasharray: none; stroke-linecap: butt; stroke-dashoffset: 0; stroke-linejoin: miter; stroke-miterlimit: 4; is-custom-font: none; font-file-url: none; fill: rgb(0,0,0); fill-rule: nonzero; opacity: 1;" transform=" translate(-269.5, -648.65)" d="M 265.1 642.7 h 8.8 v 2.5 h -5.7 v 2.6 h 5.3 v 2.5 h -5.3 v 4.3 h -3.1 L 265.1 642.7 L 265.1 642.7 z" stroke-linecap="round"></path>
</g>
		<g transform="matrix(0.1429 0 0 0.1429 -9.9141 42.6646)" id="718360">
<path style="stroke: none; stroke-width: 1; stroke-dasharray: none; stroke-linecap: butt; stroke-dashoffset: 0; stroke-linejoin: miter; stroke-miterlimit: 4; is-custom-font: none; font-file-url: none; fill: rgb(0,0,0); fill-rule: nonzero; opacity: 1;" transform=" translate(-280.6, -648.65)" d="M 282.4 654.5 l -1.7 -3.3 h -0.1 h -2.2 v 3.3 h -3.1 v -11.8 h 5.3 c 1.6 0 2.8 0.4 3.6 1.1 c 0.9 0.7 1.3 1.7 1.3 3.1 c 0 0.9 -0.2 1.7 -0.5 2.3 s -0.9 1.1 -1.6 1.5 l 2.5 3.9 L 282.4 654.5 L 282.4 654.5 z M 278.4 648.8 h 2.2 c 0.6 0 1.1 -0.2 1.5 -0.5 c 0.3 -0.3 0.5 -0.8 0.5 -1.4 c 0 -0.6 -0.2 -1 -0.5 -1.3 s -0.8 -0.5 -1.5 -0.5 h -2.2 V 648.8 z" stroke-linecap="round"></path>
</g>
		<g transform="matrix(0.1429 0 0 0.1429 -8.2498 42.6575)" id="855666">
<path style="stroke: none; stroke-width: 1; stroke-dasharray: none; stroke-linecap: butt; stroke-dashoffset: 0; stroke-linejoin: miter; stroke-miterlimit: 4; is-custom-font: none; font-file-url: none; fill: rgb(0,0,0); fill-rule: nonzero; opacity: 1;" transform=" translate(-292.25, -648.6)" d="M 287.5 642.7 h 9.3 v 2.5 h -6.2 v 2.2 h 5.6 v 2.4 h -5.6 v 2.2 h 6.4 v 2.5 h -9.5 L 287.5 642.7 L 287.5 642.7 z" stroke-linecap="round"></path>
</g>
		<g transform="matrix(0.1429 0 0 0.1429 -6.6212 42.6575)" id="615920">
<path style="stroke: none; stroke-width: 1; stroke-dasharray: none; stroke-linecap: butt; stroke-dashoffset: 0; stroke-linejoin: miter; stroke-miterlimit: 4; is-custom-font: none; font-file-url: none; fill: rgb(0,0,0); fill-rule: nonzero; opacity: 1;" transform=" translate(-303.65, -648.6)" d="M 298.9 642.7 h 9.3 v 2.5 H 302 v 2.2 h 5.6 v 2.4 H 302 v 2.2 h 6.4 v 2.5 h -9.5 V 642.7 z" stroke-linecap="round"></path>
</g>
		<g transform="matrix(0.1429 0 0 0.1429 -5.0569 42.6288)" id="346589">
<path style="stroke: none; stroke-width: 1; stroke-dasharray: none; stroke-linecap: butt; stroke-dashoffset: 0; stroke-linejoin: miter; stroke-miterlimit: 4; is-custom-font: none; font-file-url: none; fill: rgb(0,0,0); fill-rule: nonzero; opacity: 1;" transform=" translate(-314.6, -648.4)" d="M 316.4 645.3 c -0.7 -0.2 -1.3 -0.4 -1.8 -0.4 c -0.4 0 -0.7 0.1 -0.9 0.2 c -0.2 0.1 -0.3 0.3 -0.3 0.6 s 0.1 0.5 0.3 0.6 c 0.2 0.2 0.4 0.3 0.7 0.4 c 0.3 0.1 0.7 0.2 1.2 0.4 c 0.8 0.2 1.5 0.5 2 0.7 s 1 0.6 1.4 1.1 s 0.6 1.1 0.6 1.9 c 0 0.8 -0.2 1.5 -0.6 2 c -0.4 0.6 -1 1 -1.7 1.3 s -1.5 0.4 -2.4 0.4 c -1 0 -2 -0.2 -2.9 -0.5 c -1 -0.3 -1.8 -0.8 -2.5 -1.4 l 1.2 -2.4 c 0.6 0.5 1.3 1 2.1 1.3 s 1.5 0.5 2.2 0.5 c 0.5 0 0.8 -0.1 1.1 -0.3 c 0.3 -0.2 0.4 -0.4 0.4 -0.7 s -0.1 -0.5 -0.3 -0.7 c -0.2 -0.2 -0.4 -0.3 -0.7 -0.4 c -0.3 -0.1 -0.7 -0.2 -1.3 -0.4 c -0.8 -0.2 -1.5 -0.5 -2 -0.7 s -1 -0.6 -1.4 -1 c -0.4 -0.5 -0.6 -1.1 -0.6 -1.9 c 0 -0.7 0.2 -1.4 0.6 -1.9 s 0.9 -1 1.7 -1.3 c 0.7 -0.3 1.5 -0.4 2.5 -0.4 c 0.9 0 1.7 0.1 2.5 0.4 c 0.8 0.2 1.6 0.6 2.2 1 l -1.2 2.5 C 317.7 645.9 317.1 645.6 316.4 645.3 z" stroke-linecap="round"></path>
</g>
		<g transform="matrix(0.1429 0 0 0.1429 -3.414 42.6575)" id="95091">
<path style="stroke: none; stroke-width: 1; stroke-dasharray: none; stroke-linecap: butt; stroke-dashoffset: 0; stroke-linejoin: miter; stroke-miterlimit: 4; is-custom-font: none; font-file-url: none; fill: rgb(0,0,0); fill-rule: nonzero; opacity: 1;" transform=" translate(-326.1, -648.6)" d="M 319.9 642.7 h 3.3 l 2.9 8.5 l 3 -8.5 h 3.2 l -4.6 11.8 h -3.2 L 319.9 642.7 z" stroke-linecap="round"></path>
</g>
		<g transform="matrix(0.1429 0 0 0.1429 -1.6783 42.6574)" id="619939">
<path style="stroke: none; stroke-width: 1; stroke-dasharray: none; stroke-linecap: butt; stroke-dashoffset: 0; stroke-linejoin: miter; stroke-miterlimit: 4; is-custom-font: none; font-file-url: none; fill: rgb(0,0,0); fill-rule: nonzero; opacity: 1;" transform=" translate(-338.25, -648.6)" d="M 341.1 648.5 h 2.7 v 4.7 c -0.6 0.5 -1.4 0.8 -2.3 1.1 s -1.8 0.4 -2.6 0.4 c -1.2 0 -2.3 -0.3 -3.2 -0.8 s -1.7 -1.3 -2.3 -2.2 c -0.6 -0.9 -0.8 -2 -0.8 -3.1 s 0.3 -2.2 0.9 -3.1 s 1.3 -1.7 2.3 -2.2 s 2.1 -0.8 3.3 -0.8 c 0.9 0 1.8 0.2 2.6 0.5 c 0.9 0.3 1.6 0.8 2.2 1.3 l -1.8 2.2 c -0.4 -0.4 -0.9 -0.7 -1.5 -1 c -0.6 -0.2 -1.1 -0.4 -1.6 -0.4 c -0.6 0 -1.2 0.2 -1.7 0.5 s -0.9 0.7 -1.2 1.2 c -0.3 0.5 -0.4 1.1 -0.4 1.8 s 0.1 1.3 0.4 1.8 s 0.7 1 1.2 1.3 s 1.1 0.5 1.7 0.5 s 1.3 -0.2 2 -0.6 L 341.1 648.5 L 341.1 648.5 z" stroke-linecap="round"></path>
</g>
		<g transform="matrix(0.1429 0 0 0.1429 0.2003 42.6575)" id="538551">
<path style="stroke: none; stroke-width: 1; stroke-dasharray: none; stroke-linecap: butt; stroke-dashoffset: 0; stroke-linejoin: miter; stroke-miterlimit: 4; is-custom-font: none; font-file-url: none; fill: rgb(0,0,0); fill-rule: nonzero; opacity: 1;" transform=" translate(-351.4, -648.6)" d="M 354.1 643.4 c 0.9 0.5 1.7 1.2 2.2 2.1 c 0.5 0.9 0.8 1.9 0.8 3.1 c 0 1.2 -0.3 2.2 -0.8 3.1 c -0.5 0.9 -1.3 1.6 -2.3 2.1 s -2.1 0.7 -3.3 0.7 h -5 v -11.8 h 5.1 C 352.1 642.7 353.2 642.9 354.1 643.4 z M 352.5 651.6 c 0.5 -0.3 0.8 -0.7 1.1 -1.2 c 0.3 -0.5 0.4 -1.1 0.4 -1.8 s -0.1 -1.3 -0.4 -1.8 s -0.7 -0.9 -1.1 -1.2 s -1 -0.4 -1.7 -0.4 h -1.9 v 6.8 h 2.1 C 351.5 652 352.1 651.9 352.5 651.6 z" stroke-linecap="round"></path>
</g>
		<g transform="matrix(0.1429 0 0 0.1429 2.0146 42.6574)" id="853453">
<path style="stroke: none; stroke-width: 1; stroke-dasharray: none; stroke-linecap: butt; stroke-dashoffset: 0; stroke-linejoin: miter; stroke-miterlimit: 4; is-custom-font: none; font-file-url: none; fill: rgb(0,0,0); fill-rule: nonzero; opacity: 1;" transform=" translate(-364.1, -648.6)" d="M 367.4 643.3 c 1 0.5 1.7 1.3 2.3 2.2 c 0.6 0.9 0.8 2 0.8 3.1 c 0 1.2 -0.3 2.2 -0.8 3.1 s -1.3 1.7 -2.3 2.2 s -2.1 0.8 -3.3 0.8 s -2.3 -0.3 -3.3 -0.8 s -1.7 -1.3 -2.3 -2.2 s -0.8 -2 -0.8 -3.1 s 0.3 -2.2 0.8 -3.1 c 0.6 -0.9 1.3 -1.6 2.3 -2.2 c 1 -0.5 2.1 -0.8 3.3 -0.8 S 366.4 642.8 367.4 643.3 z M 362.5 645.6 c -0.5 0.3 -0.9 0.7 -1.2 1.3 s -0.4 1.1 -0.4 1.8 s 0.1 1.2 0.4 1.8 s 0.7 1 1.2 1.3 s 1 0.5 1.6 0.5 s 1.1 -0.2 1.6 -0.5 s 0.9 -0.7 1.2 -1.3 c 0.3 -0.5 0.4 -1.1 0.4 -1.8 c 0 -0.6 -0.1 -1.2 -0.4 -1.8 c -0.3 -0.5 -0.7 -1 -1.2 -1.3 s -1 -0.5 -1.6 -0.5 C 363.6 645.1 363 645.3 362.5 645.6 z" stroke-linecap="round"></path>
</g>
		<g transform="matrix(0.1429 0 0 0.1429 4.2933 42.6575)" id="161289">
<path style="stroke: none; stroke-width: 1; stroke-dasharray: none; stroke-linecap: butt; stroke-dashoffset: 0; stroke-linejoin: miter; stroke-miterlimit: 4; is-custom-font: none; font-file-url: none; fill: rgb(0,0,0); fill-rule: nonzero; opacity: 1;" transform=" translate(-380.05, -648.6)" d="M 386.3 642.7 h 3.2 l -4 11.8 h -3.2 l -2.2 -8 l -2.3 8 h -3.2 l -4 -11.8 h 3.3 l 2.3 8.6 l 2.3 -8.6 h 3 l 2.4 8.6 L 386.3 642.7 z" stroke-linecap="round"></path>
</g>
		<g transform="matrix(0.1429 0 0 0.1429 6.586 42.6575)" id="318254">
<path style="stroke: none; stroke-width: 1; stroke-dasharray: none; stroke-linecap: butt; stroke-dashoffset: 0; stroke-linejoin: miter; stroke-miterlimit: 4; is-custom-font: none; font-file-url: none; fill: rgb(0,0,0); fill-rule: nonzero; opacity: 1;" transform=" translate(-396.1, -648.6)" d="M 398.7 642.7 h 2.9 v 11.8 h -2.7 l -5.4 -7.1 v 7.1 h -2.9 v -11.8 h 2.7 l 5.4 7.1 V 642.7 z" stroke-linecap="round"></path>
</g>
		<g transform="matrix(0.1429 0 0 0.1429 8.2645 42.6575)" id="468227">
<path style="stroke: none; stroke-width: 1; stroke-dasharray: none; stroke-linecap: butt; stroke-dashoffset: 0; stroke-linejoin: miter; stroke-miterlimit: 4; is-custom-font: none; font-file-url: none; fill: rgb(0,0,0); fill-rule: nonzero; opacity: 1;" transform=" translate(-407.85, -648.6)" d="M 403.8 642.7 h 3.1 v 9.2 h 5 v 2.6 h -8.1 V 642.7 z" stroke-linecap="round"></path>
</g>
		<g transform="matrix(0.1429 0 0 0.1429 9.8431 42.6574)" id="616543">
<path style="stroke: none; stroke-width: 1; stroke-dasharray: none; stroke-linecap: butt; stroke-dashoffset: 0; stroke-linejoin: miter; stroke-miterlimit: 4; is-custom-font: none; font-file-url: none; fill: rgb(0,0,0); fill-rule: nonzero; opacity: 1;" transform=" translate(-418.9, -648.6)" d="M 422.2 643.3 c 1 0.5 1.7 1.3 2.3 2.2 c 0.6 0.9 0.8 2 0.8 3.1 c 0 1.2 -0.3 2.2 -0.8 3.1 s -1.3 1.7 -2.3 2.2 s -2.1 0.8 -3.3 0.8 s -2.3 -0.3 -3.3 -0.8 s -1.7 -1.3 -2.3 -2.2 s -0.8 -2 -0.8 -3.1 s 0.3 -2.2 0.8 -3.1 c 0.6 -0.9 1.3 -1.6 2.3 -2.2 c 1 -0.5 2.1 -0.8 3.3 -0.8 S 421.2 642.8 422.2 643.3 z M 417.4 645.6 c -0.5 0.3 -0.9 0.7 -1.2 1.3 s -0.4 1.1 -0.4 1.8 s 0.1 1.2 0.4 1.8 s 0.7 1 1.2 1.3 s 1 0.5 1.6 0.5 s 1.1 -0.2 1.6 -0.5 s 0.9 -0.7 1.2 -1.3 c 0.3 -0.5 0.4 -1.1 0.4 -1.8 c 0 -0.6 -0.1 -1.2 -0.4 -1.8 c -0.3 -0.5 -0.7 -1 -1.2 -1.3 s -1 -0.5 -1.6 -0.5 S 417.9 645.3 417.4 645.6 z" stroke-linecap="round"></path>
</g>
		<g transform="matrix(0.1429 0 0 0.1429 11.7074 42.6575)" id="318339">
<path style="stroke: none; stroke-width: 1; stroke-dasharray: none; stroke-linecap: butt; stroke-dashoffset: 0; stroke-linejoin: miter; stroke-miterlimit: 4; is-custom-font: none; font-file-url: none; fill: rgb(0,0,0); fill-rule: nonzero; opacity: 1;" transform=" translate(-431.95, -648.6)" d="M 435.2 654.5 l -0.8 -2.1 h -5.1 l -0.8 2.1 h -3.2 l 5.1 -11.8 h 3.2 l 5 11.8 H 435.2 z M 430.2 650.1 h 3.3 l -1.6 -4.2 L 430.2 650.1 z" stroke-linecap="round"></path>
</g>
		<g transform="matrix(0.1429 0 0 0.1429 13.6003 42.6575)" id="181550">
<path style="stroke: none; stroke-width: 1; stroke-dasharray: none; stroke-linecap: butt; stroke-dashoffset: 0; stroke-linejoin: miter; stroke-miterlimit: 4; is-custom-font: none; font-file-url: none; fill: rgb(0,0,0); fill-rule: nonzero; opacity: 1;" transform=" translate(-445.2, -648.6)" d="M 447.9 643.4 c 0.9 0.5 1.7 1.2 2.2 2.1 c 0.5 0.9 0.8 1.9 0.8 3.1 c 0 1.2 -0.3 2.2 -0.8 3.1 c -0.5 0.9 -1.3 1.6 -2.3 2.1 s -2.1 0.7 -3.3 0.7 h -5 v -11.8 h 5.1 C 445.9 642.7 447 642.9 447.9 643.4 z M 446.3 651.6 c 0.5 -0.3 0.8 -0.7 1.1 -1.2 c 0.3 -0.5 0.4 -1.1 0.4 -1.8 s -0.1 -1.3 -0.4 -1.8 s -0.7 -0.9 -1.1 -1.2 s -1 -0.4 -1.7 -0.4 h -1.9 v 6.8 h 2.1 C 445.3 652 445.9 651.9 446.3 651.6 z" stroke-linecap="round"></path>
</g>
		<g transform="matrix(0.1429 0 0 0.1429 14.7144 43.3073)" id="817642">
<path style="stroke: none; stroke-width: 1; stroke-dasharray: none; stroke-linecap: butt; stroke-dashoffset: 0; stroke-linejoin: miter; stroke-miterlimit: 4; is-custom-font: none; font-file-url: none; fill: rgb(0,0,0); fill-rule: nonzero; opacity: 1;" transform=" translate(-453, -653.15)" d="M 454 652.1 c 0.3 0.3 0.4 0.6 0.4 1 s -0.1 0.8 -0.4 1.1 s -0.6 0.4 -1 0.4 s -0.8 -0.1 -1 -0.4 c -0.3 -0.3 -0.4 -0.6 -0.4 -1.1 c 0 -0.4 0.1 -0.8 0.4 -1 c 0.3 -0.3 0.6 -0.4 1 -0.4 S 453.8 651.9 454 652.1 z" stroke-linecap="round"></path>
</g>
		<g transform="matrix(0.1429 0 0 0.1429 15.8502 42.6288)" id="265648">
<path style="stroke: none; stroke-width: 1; stroke-dasharray: none; stroke-linecap: butt; stroke-dashoffset: 0; stroke-linejoin: miter; stroke-miterlimit: 4; is-custom-font: none; font-file-url: none; fill: rgb(0,0,0); fill-rule: nonzero; opacity: 1;" transform=" translate(-460.95, -648.4)" d="M 463.4 645.6 c -0.5 -0.3 -1 -0.4 -1.6 -0.4 s -1.1 0.1 -1.6 0.4 c -0.5 0.3 -0.9 0.7 -1.2 1.2 c -0.3 0.5 -0.4 1.1 -0.4 1.7 c 0 0.6 0.1 1.2 0.4 1.7 s 0.7 0.9 1.2 1.2 s 1 0.4 1.6 0.4 c 0.5 0 1 -0.1 1.5 -0.4 c 0.5 -0.2 1 -0.6 1.4 -1 l 1.8 1.9 c -0.6 0.7 -1.4 1.2 -2.3 1.6 c -0.9 0.4 -1.8 0.6 -2.6 0.6 c -1.2 0 -2.2 -0.3 -3.2 -0.8 s -1.7 -1.3 -2.2 -2.2 s -0.8 -2 -0.8 -3.1 s 0.3 -2.2 0.8 -3.1 c 0.5 -0.9 1.3 -1.6 2.3 -2.2 c 1 -0.5 2 -0.8 3.2 -0.8 c 0.9 0 1.7 0.2 2.6 0.5 c 0.9 0.4 1.6 0.9 2.2 1.5 l -1.8 2.2 C 464.4 646.2 463.9 645.8 463.4 645.6 z" stroke-linecap="round"></path>
</g>
		<g transform="matrix(0.1429 0 0 0.1429 17.6003 42.6574)" id="362844">
<path style="stroke: none; stroke-width: 1; stroke-dasharray: none; stroke-linecap: butt; stroke-dashoffset: 0; stroke-linejoin: miter; stroke-miterlimit: 4; is-custom-font: none; font-file-url: none; fill: rgb(0,0,0); fill-rule: nonzero; opacity: 1;" transform=" translate(-473.2, -648.6)" d="M 476.5 643.3 c 1 0.5 1.7 1.3 2.3 2.2 c 0.6 0.9 0.8 2 0.8 3.1 c 0 1.2 -0.3 2.2 -0.8 3.1 s -1.3 1.7 -2.3 2.2 s -2.1 0.8 -3.3 0.8 c -1.2 0 -2.3 -0.3 -3.3 -0.8 s -1.7 -1.3 -2.3 -2.2 s -0.8 -2 -0.8 -3.1 s 0.3 -2.2 0.8 -3.1 c 0.6 -0.9 1.3 -1.6 2.3 -2.2 c 1 -0.5 2.1 -0.8 3.3 -0.8 C 474.5 642.5 475.6 642.8 476.5 643.3 z M 471.7 645.6 c -0.5 0.3 -0.9 0.7 -1.2 1.3 s -0.4 1.1 -0.4 1.8 s 0.1 1.2 0.4 1.8 c 0.3 0.5 0.7 1 1.2 1.3 s 1 0.5 1.6 0.5 s 1.1 -0.2 1.6 -0.5 s 0.9 -0.7 1.2 -1.3 c 0.3 -0.5 0.4 -1.1 0.4 -1.8 c 0 -0.6 -0.1 -1.2 -0.4 -1.8 c -0.3 -0.5 -0.7 -1 -1.2 -1.3 s -1 -0.5 -1.6 -0.5 S 472.2 645.3 471.7 645.6 z" stroke-linecap="round"></path>
</g>
		<g transform="matrix(0.1429 0 0 0.1429 19.7146 42.6575)" id="516255">
<path style="stroke: none; stroke-width: 1; stroke-dasharray: none; stroke-linecap: butt; stroke-dashoffset: 0; stroke-linejoin: miter; stroke-miterlimit: 4; is-custom-font: none; font-file-url: none; fill: rgb(0,0,0); fill-rule: nonzero; opacity: 1;" transform=" translate(-488, -648.6)" d="M 481.2 642.7 h 3.4 l 3.4 6.9 l 3.4 -6.9 h 3.4 v 11.8 H 492 V 647 l -3 6.3 h -2 l -3 -6.3 v 7.5 h -2.7 L 481.2 642.7 L 481.2 642.7 z" stroke-linecap="round"></path>
</g>
		<g transform="matrix(0.1429 0 0 0.1429 -0.0038 -7.1721)" id="848924">
<radialGradient id="SVGID_15" gradientUnits="userSpaceOnUse" gradientTransform="matrix(1 0 0 1 0 0)" cx="349.8057" cy="299.828" r="229.7191" fx="349.8057" fy="299.828">
<stop offset="0.5618%" style="stop-color:rgb(252,172,214);stop-opacity: 1"></stop>
<stop offset="44.940000000000005%" style="stop-color:rgb(249,147,195);stop-opacity: 1"></stop>
<stop offset="100%" style="stop-color:rgb(246,125,181);stop-opacity: 1"></stop>
</radialGradient>
<path style="stroke: none; stroke-width: 1; stroke-dasharray: none; stroke-linecap: butt; stroke-dashoffset: 0; stroke-linejoin: miter; stroke-miterlimit: 4; is-custom-font: none; font-file-url: none; fill: url(#SVGID_15); fill-rule: nonzero; opacity: 1;" transform=" translate(-349.8875, -299.7495)" d="M 355.5 242.8 c 3.8 -8.1 7.2 -15.4 11.9 -22.1 c 13.2 -18.5 30.9 -29.9 53.2 -34 c 26 -4.7 50.2 -0.5 71.5 15.9 c 10.7 8.2 18.2 18.8 23 31.5 c 5.4 14.3 3.9 28 -1.7 41.7 c -0.2 0.5 -0.5 1.1 0 1.8 c 1.9 -0.5 2.7 -2.3 3.9 -3.6 c 8.1 -8.9 17.9 -14.7 29.6 -17.2 c 16 -3.5 31.7 -1.9 47.3 3.5 c 23.6 8.1 36 25.6 41 48.8 c 5 23 -2 43.6 -15.2 62.4 c -9.5 13.5 -18.8 27.1 -28.4 40.6 c -7.8 11 -14.9 22.5 -24.7 31.9 c -2.1 2 -4.2 4 -6.6 5.7 c -5.5 3.9 -11.3 1.6 -16.9 1 c -11.7 -1.2 -23.3 -2.6 -34.9 -4.3 c -18.4 -2.7 -36.8 -5.2 -55.2 -7.2 c -13.9 -1.5 -27.8 -2.3 -41.7 -3 c -25.7 -1.3 -51.4 -1.7 -77.1 -1.3 c -15.5 0.2 -31 -0.1 -46.4 0.8 c -20.4 1.2 -40.8 2.4 -61.1 5.1 c -16.3 2.2 -32.7 4.4 -48.9 7 c -10.3 1.6 -20.7 2.9 -31.1 4 c -5.3 0.6 -9.2 -2.8 -12.8 -6.1 c -6 -5.4 -11.4 -11.6 -15.7 -18.1 c -8.7 -13.3 -18.1 -26.2 -27 -39.4 c -4.8 -7.1 -10.1 -13.9 -14.8 -21.1 c -10.4 -15.9 -15.5 -33.5 -13.2 -52.3 c 2.3 -19.1 10.7 -35.4 26.6 -46.9 c 8.5 -6.1 18.3 -9.4 28.6 -11.3 c 8.7 -1.6 17.5 -2.3 26.3 -1.2 c 14.9 1.9 27.8 7.8 37.9 19.2 c 0.7 0.8 1.3 1.9 2.7 2.1 c 1 -1.4 0.1 -2.7 -0.4 -3.9 c -8.8 -23.2 -2.5 -43.2 13.1 -61.3 c 10.8 -12.5 24.5 -20.4 40.3 -24 c 25.3 -5.8 49.5 -2.8 71.6 11.5 c 15.6 10.1 26.3 24.4 32.9 41.7 c 0.3 0.8 0.5 1.5 0.9 2.3 c 0.1 0.3 0.5 0.4 0.8 0.6 c 1.7 -0.8 1.2 -2.4 1.3 -3.7 c 0.5 -9.1 -3.1 -17.3 -6.2 -25.5 c -3.9 -10.6 -7.8 -21.1 -9.9 -32.2 c -1.3 -7 -1.7 -14.1 0.5 -21.1 c 2.2 -7 6.4 -12.3 14.1 -13.3 c 8.1 -1.1 14.6 1.9 18.9 9.1 c 3.3 5.6 4.4 11.7 4.1 18.1 c -0.4 8 -2.1 15.9 -3.5 23.8 c -1.9 10.3 -7 19.7 -8.6 30 C 354.6 233.2 353.6 237.6 355.5 242.8 z M 365.1 331.8 c 1.3 -0.4 1.6 -0.5 1.7 -0.6 c 0.4 -0.4 0.8 -0.8 1.2 -1.3 c 7.6 -10.1 17.7 -15.5 30.2 -16.4 c 7.8 -0.6 15.5 -0.3 22.4 3.5 c 12.9 7.1 19.5 18 18.9 33.1 c -0.6 14.4 -8.5 22 -22.6 21.2 c -7.9 -0.4 -12.2 -8.8 -7.9 -15.5 c 2.3 -3.6 6.1 -4 9.7 -4.7 c 4.4 -0.9 6.5 -3.3 6.4 -7.7 c -0.1 -2.3 -0.7 -4.6 -1.8 -6.7 c -3.4 -6.6 -9.4 -9.2 -16.2 -10 c -16.7 -2.1 -28.9 11.9 -33.1 23.8 c -2.1 6.1 -0.5 12 0.7 17.9 c 0.2 0.7 0.5 1.6 1.8 1.4 c 0.1 -0.3 0.4 -0.7 0.4 -1.2 c 0.5 -8 2.3 -15.3 9.5 -20.4 c 2.2 -1.6 8.2 -3.3 10.6 -2 c 3.1 1.6 6.2 6.9 5.9 9.8 c -0.5 4 -3.6 5.4 -6.8 6.6 c -1.1 0.4 -2.3 0.5 -3.4 0.5 c -2.8 -0.1 -3.6 1.4 -3.7 3.9 c -0.2 5.3 0.5 10.5 2.6 15.4 c 3.6 8.6 10.9 15.3 21.9 15.8 c 8.9 0.3 16.9 -1.7 24.5 -6.4 c 15.7 -9.7 22.3 -26.7 16.9 -43.9 c -3.4 -10.8 -9.1 -20.6 -14.6 -30.5 c -8.5 -15.2 -16.5 -30.6 -17.3 -48.5 c -0.4 -9.8 2 -18.8 8.4 -26.3 c 9.3 -10.7 27.7 -13.4 39.8 -6.2 c 5.5 3.3 9.4 8 9.4 14.9 c 0 1.6 0 3.3 -1.8 3.9 c -1.3 -0.4 -1.5 -1.4 -1.9 -2.2 c -5.1 -8.1 -16.3 -12.2 -24.9 -9.3 c -13.3 4.4 -18.7 16.9 -15.2 30.2 c 3.1 11.9 9.3 22.5 15 33.3 c 7.7 14.4 16.7 28.2 21.8 43.9 c 4.9 15.3 4.1 30.4 -2.3 45.2 c -0.5 1.2 -1.7 2.3 -0.9 3.8 c 1.2 0.4 1.8 -0.4 2.5 -1 c 6.3 -5.3 11.3 -11.6 14.3 -19.5 c 2.3 -6.1 4.5 -12.2 8.1 -17.7 c 5.8 -8.7 12.6 -15.4 24 -16.5 c 9.7 -0.9 18.2 0.4 24.9 8.1 c 4.6 5.3 5.8 13.8 2.3 18.4 c -2.2 2.9 -5.2 3.4 -8.4 2.7 c -2.9 -0.6 -2.8 -3.2 -3.1 -5.6 c -0.3 -2.6 -0.4 -5.3 -1.3 -7.9 c -0.8 -2.3 -2.2 -4 -4.4 -5.2 c -7.1 -3.8 -14.1 -2 -18.5 4.9 c -7.6 12.1 -9 25.5 -8.1 39.3 c 0.4 6.4 0.8 6.3 7.2 5 c 1.4 -0.3 2.8 -0.4 4.1 -0.8 c 12.7 -3.7 23.4 -10.9 32.8 -19.8 c 12.1 -11.4 23.6 -23.3 30.7 -38.8 c 3.6 -8 5.9 -15.8 4.4 -24.5 c -1.6 -9.3 -9.1 -16.8 -18.3 -18.9 c -5.5 -1.3 -10.9 -0.3 -16.3 -0.1 c -1.4 0.1 -3 0 -3.4 -1.7 c -0.3 -1.6 1 -2.2 2.1 -2.8 c 13.7 -8.1 33.6 -2.5 41.5 11.3 c 7.7 13.5 8 27.2 2.6 41.5 c -5.4 14.2 -14 26.2 -23.4 37.8 c -5.6 7 -11.4 13.8 -17 20.7 c -0.8 1 -1.7 2.2 -0.6 3.4 c 0.9 1.1 2.1 0.5 3.2 0.1 c 6.1 -2.1 10.8 -6.4 15.6 -10.3 c 14.4 -11.8 26.6 -25.7 36.2 -41.7 c 8.1 -13.3 14 -27.2 13.5 -43.3 c -0.5 -15.8 -7.4 -28.2 -20 -37.3 c -13.8 -9.9 -29.3 -13.2 -46 -9.3 c -10.7 2.4 -19.7 7.9 -26.5 16.3 c -8.2 10.2 -13.1 21.6 -8.9 35 c 3.9 12.4 15.2 15.2 24.6 7.4 c 3.2 -2.6 4.3 -6.9 2.7 -10 c -1.4 -2.9 -3.8 -3.7 -8.5 -2.8 c -1.6 0.3 -3.2 0.5 -4.8 0.4 c -3.2 -0.1 -4.7 -2.5 -3.9 -5.5 c 0.5 -2.2 2 -3.7 3.7 -4.9 c 6.3 -4.3 18.9 -2.1 23.6 4 c 6.9 8.9 3.7 18 -2.5 25.4 c -5.1 6.2 -12.7 7.3 -20.2 7.8 c -11.4 0.8 -22 -6.1 -26 -16.7 c -3.1 -8.2 -2.8 -16.7 -1.3 -25.1 c 0.7 -4.2 2 -8.2 3.1 -12.3 c -2.3 -0.8 -2.8 0.9 -3.6 1.8 c -9.3 10.4 -22.9 14.6 -35.1 7.2 c -10.4 -6.4 -14.5 -16.3 -9.3 -26.4 c 6.1 -11.9 20.2 -16 32.4 -10.2 c 2 1 3.7 2.4 5.2 4 c 0.9 1 1.3 2.3 0.7 3.5 c -0.7 1.4 -2.1 1.4 -3.4 1.1 c -2.1 -0.5 -4.3 -1.1 -6.4 -1.8 c -5.6 -2.1 -10.6 -0.6 -15 2.9 c -3.1 2.5 -4.7 5.9 -3.5 10.2 c 2.5 9.6 11.8 10.4 19.2 6.8 c 8.7 -4.2 14 -11.5 16.3 -20.7 c 3.9 -15.2 -0.4 -29 -8.6 -41.8 c -7.2 -11.2 -17.5 -18.4 -30.1 -22.6 c -9.4 -3.1 -18.8 -4.6 -28.8 -3.8 c -8.9 0.7 -17.4 2.7 -25.7 5.7 c -10.4 3.8 -18.8 9.9 -25.2 18.9 c -6.5 9.1 -11.1 19.1 -13.8 29.9 c -2.2 8.6 -3 17.4 -0.4 26.2 c 1.1 3.7 2.7 4.6 6.6 3.9 c 3.6 -0.6 6.7 -2.5 9.9 -4.2 c 2.3 -1.2 4.6 -2.9 8.4 -2.6 C 385.6 295.8 373.6 312.4 365.1 331.8 z M 303.4 278.1 c 1.7 -0.9 2.8 -0.1 3.9 0.4 c 4.6 1.9 8.7 5 13.7 6 c 3.9 0.7 5.7 -0.2 7 -3.8 c 1.4 -3.9 1.5 -8 1.5 -12 c -0.2 -12.5 -4.2 -24 -10.1 -34.8 c -4.9 -8.9 -10.6 -17.3 -19.6 -22.6 c -9.6 -5.7 -20 -8.9 -31.1 -10.6 c -14.7 -2.2 -28.7 0.1 -42.2 6.1 c -21.5 9.6 -37.7 37.9 -30.7 62.3 c 2.8 9.9 8.5 17.8 18.7 20.9 c 5.9 1.8 11.3 1 14.2 -3.5 c 2.2 -3.3 3.8 -7 1.8 -10.8 c -2.4 -4.5 -6.4 -7 -11.4 -7.6 c -4 -0.5 -7.6 0.9 -11.2 2.1 c -1.9 0.6 -4.1 1.3 -5.2 -1 c -1.1 -2.3 0.5 -3.7 2.2 -4.9 c 8.7 -6.2 18.1 -6.9 27.2 -1.5 c 12.2 7.2 14.6 19.5 6.5 29.9 c -9.3 11.9 -26.6 12.9 -38.4 2.1 c -2.9 -2.7 -5.7 -5.6 -8.6 -8.6 c -0.3 1.4 0.3 2.3 0.7 3.2 c 4.2 8.7 5.6 17.9 4.8 27.5 c -0.7 9 -4 17 -11.5 22.1 c -7.8 5.4 -16.9 5.7 -25.9 3.3 c -5 -1.3 -9.4 -3.8 -12.7 -8.1 c -8.4 -11.3 -5.7 -25.3 7.8 -29.2 c 6 -1.8 11.8 -1.1 16.7 3.1 c 2.1 1.8 2.4 4.3 1.5 6.7 c -0.8 2.3 -3.1 2.2 -5.1 2.1 c -1.7 -0.1 -3.5 -0.5 -5.2 -0.7 c -2.4 -0.3 -4.6 0 -6.2 2.2 c -1.6 2.3 -1.8 4.6 -0.5 7.2 c 2.6 5 7.1 7.2 12.4 7.9 c 7.8 1.1 13.5 -5.8 15.1 -12.3 c 3.6 -14.4 -1.7 -26.4 -11.3 -36.7 c -13.2 -14.1 -29.8 -17.8 -48.3 -14.4 c -30.9 5.8 -48.2 33.2 -40.4 63.6 c 1.1 4.4 2.7 8.5 4.6 12.6 c 2.1 4.5 4 9.1 6.6 13.4 c 7.1 11.6 15.4 22.1 25 31.7 c 7.5 7.4 15.2 14.7 24.7 19.7 c 1.7 0.9 3.9 3.1 5.6 1.2 c 1.9 -2.1 -0.7 -4 -2 -5.6 c -10.9 -13 -22.3 -25.6 -31.1 -40.3 c -6.7 -11.2 -12.4 -23 -11.5 -36.6 c 0.9 -14.6 6.6 -26.7 20.5 -33.3 c 9.5 -4.5 19 -3.9 28.1 1.5 c 0.9 0.5 2 1.1 1.7 2.3 c -0.3 1.2 -1.5 1.4 -2.5 1.5 c -2.4 0.3 -4.9 0 -7.3 -0.3 c -19.1 -2.2 -30.8 12.2 -28.9 29 c 1.2 10.1 5.7 19 11.5 27.2 c 4.8 6.9 10.2 13.2 16.2 19.2 c 12.8 12.9 26.4 24.5 45 28.3 c 5.3 1.1 6.4 0.7 6.8 -4.9 c 0.5 -7.9 0.2 -15.8 -1.5 -23.6 c -1.5 -6.8 -4.1 -13.1 -8.6 -18.5 c -3.6 -4.3 -8.5 -5.5 -13.9 -3.7 c -5.2 1.8 -7.8 5.4 -8 11.4 c -0.1 1.4 0 2.8 -0.1 4.2 c -0.4 2.9 -1.9 4.6 -5.1 4.6 c -4.8 0 -8.4 -3.5 -8.7 -8.6 c -0.6 -9.1 10.4 -22.1 19.5 -21.9 c 7.9 0.1 15.9 0.3 22.9 5.8 c 8.2 6.4 13.2 14.6 16.8 23.9 c 2.2 5.5 4.2 11.1 7.7 16 c 3 4.1 6.3 7.9 11.3 10.2 c 0.2 -2.1 -0.6 -3.5 -1.3 -5 c -0.7 -1.5 -1.5 -2.9 -2 -4.5 c -4.9 -16.4 -4.2 -32.3 3.2 -48.1 c 5 -10.5 10.6 -20.7 16.1 -30.9 c 6 -11.3 12.9 -22.2 16.6 -34.5 c 3.1 -10.2 3.3 -20.2 -5.5 -28.4 c -10.1 -9.4 -26.2 -7.4 -33.6 4.3 c -0.6 0.9 -0.8 2.3 -2.4 2.1 c -2.1 -3.6 -1.5 -9.6 1.4 -13 c 8.5 -9.7 19.3 -11.7 31.1 -8.5 c 12.9 3.5 20.7 12.4 22.8 25.5 c 2.6 15.4 -1.9 29.8 -8.7 43.4 c -7.3 14.6 -16 28.6 -21.9 43.9 c -2.9 7.5 -3.2 15.2 -1.1 22.6 c 5.3 18.9 25.8 31.8 45.2 28.7 c 3.6 -0.6 7.3 -1.7 10.2 -4.2 c 8.7 -7.1 11 -16.8 11.2 -27.4 c 0 -1.9 -0.9 -3.1 -3 -3 c -2.4 0.1 -4.6 -0.9 -6.7 -1.7 c -3.6 -1.5 -5.1 -4.2 -4.4 -7.4 c 0.9 -3.9 5.4 -8.5 8.4 -8.2 c 3.3 0.3 6.4 0.3 9.2 3.2 c 3.6 3.8 6.4 7.6 7.3 12.7 c 0.5 2.7 1.1 5.4 1.6 8 c 1.3 -0.2 1.4 -1.2 1.6 -1.9 c 3.3 -10 1.9 -19.2 -4.6 -27.5 c -6.9 -8.8 -15.3 -15 -27.3 -13.7 c -6.3 0.7 -11.7 3.2 -15.5 8.3 c -5.6 7.5 -2.4 15.4 6.7 16.9 c 0.1 0 0.2 0 0.3 0 c 3.8 0.7 6.9 3.7 7.5 7.3 c 0.8 4.9 -0.7 8.7 -4.5 10.8 c -6.3 3.5 -17 1.4 -21.8 -4.2 c -4.2 -4.9 -5.9 -10.5 -5.9 -17 c 0.1 -13.1 5.6 -23.2 16.4 -30.1 c 13.8 -8.9 38.1 -6.2 50.2 5.5 c 2.5 2.4 3.9 5.6 7.3 7.3 C 326.1 312.2 313.5 295.9 303.4 278.1 z M 370.3 392.9 c 0 -5.2 -1.9 -8.5 -5.8 -9.9 c -4.3 -1.6 -8.5 -0.7 -11.5 2.7 c -2.6 2.9 -4.1 2.6 -6.9 0.1 c -4 -3.5 -8.4 -4.4 -13 -1 c -3.7 2.8 -5 7 -3.1 11.8 c 1 2.4 2.4 4.4 4.7 5.9 c 5.1 3.4 10.6 6.3 14.3 11.5 c 0.9 1.2 2.2 1.4 3.1 -0.1 c 2.8 -4.8 7.2 -7.8 11.7 -10.8 C 367.6 400.5 370.5 397.2 370.3 392.9 z" stroke-linecap="round"></path>
</g>
		<g transform="matrix(0.1429 0 0 0.1429 -0.0965 17.9706)" id="341109">
<radialGradient id="SVGID_16" gradientUnits="userSpaceOnUse" gradientTransform="matrix(1 0 0 1 0 0)" cx="349.2899" cy="475.644" r="144.3116" fx="349.2899" fy="475.644">
<stop offset="0.5618%" style="stop-color:rgb(252,172,214);stop-opacity: 1"></stop>
<stop offset="44.940000000000005%" style="stop-color:rgb(249,147,195);stop-opacity: 1"></stop>
<stop offset="100%" style="stop-color:rgb(246,125,181);stop-opacity: 1"></stop>
</radialGradient>
<path style="stroke: none; stroke-width: 1; stroke-dasharray: none; stroke-linecap: butt; stroke-dashoffset: 0; stroke-linejoin: miter; stroke-miterlimit: 4; is-custom-font: none; font-file-url: none; fill: url(#SVGID_16); fill-rule: nonzero; opacity: 1;" transform=" translate(-349.2633, -475.7861)" d="M 146.9 470 c 3.8 -2.2 7.8 -2.6 11.5 -3.4 c 8.6 -1.9 17.3 -3.5 26 -4.9 c 8.4 -1.4 16.7 -2.6 25.1 -3.9 c 8.7 -1.3 17.5 -2.3 26.2 -3.4 c 7.6 -0.9 15.3 -1.5 22.9 -1.8 c 29 -1.5 58.1 -3.1 87.1 -3.1 c 24.1 0 48.1 1 72.2 2.1 c 13.6 0.6 27.2 1 40.7 2.5 c 9.8 1.1 19.6 2.1 29.3 3.5 c 13.5 1.9 26.8 4.7 40.3 6.3 c 4.6 0.5 9.1 1.8 13.5 3.2 c 2.4 0.8 4.8 0.6 7.2 1.2 c 2.5 0.7 3.4 1.9 2.2 4.3 c -3.3 7.2 -5.2 14.7 -6.6 22.5 c -0.6 3.6 -2.6 5.7 -6.4 6.3 c -8 1.3 -15.8 -0.3 -23.6 -1 c -13 -1.1 -25.9 -2.1 -38.9 -3.3 c -15.5 -1.5 -31 -2.3 -46.6 -3.2 c -3.1 -0.2 -6.3 -0.4 -9.4 -0.4 c -20 -0.3 -40 -1.8 -60 -0.7 c -9.2 0.5 -18.4 -0.5 -27.6 -0.4 c -26.2 0.1 -52.3 0.8 -78.5 2.3 c -12.4 0.7 -24.8 1.9 -37.2 2.8 c -15.8 1.1 -31.5 3 -47.2 4.5 c -3.5 0.3 -7 -0.4 -10.4 -0.9 c -1.8 -0.3 -3.2 -1.6 -3.6 -3.4 C 152.9 488.2 150.9 478.8 146.9 470 z" stroke-linecap="round"></path>
</g>
		<g transform="matrix(0.1429 0 0 0.1429 26.6578 -16.0071)" id="900819">
<radialGradient id="SVGID_17" gradientUnits="userSpaceOnUse" gradientTransform="matrix(1 0 0 1 0 0)" cx="536.6273" cy="238.0088" r="12.5313" fx="536.6273" fy="238.0088">
<stop offset="0.5618%" style="stop-color:rgb(252,172,214);stop-opacity: 1"></stop>
<stop offset="44.940000000000005%" style="stop-color:rgb(249,147,195);stop-opacity: 1"></stop>
<stop offset="100%" style="stop-color:rgb(246,125,181);stop-opacity: 1"></stop>
</radialGradient>
<path style="stroke: none; stroke-width: 1; stroke-dasharray: none; stroke-linecap: butt; stroke-dashoffset: 0; stroke-linejoin: miter; stroke-miterlimit: 4; is-custom-font: none; font-file-url: none; fill: url(#SVGID_17); fill-rule: nonzero; opacity: 1;" transform=" translate(-536.6006, -237.9467)" d="M 549.2 238.2 c 0.1 6.3 -5.7 12 -12.4 12.2 c -6.1 0.2 -12.8 -5.9 -12.8 -11.6 c 0 -7.1 5.5 -13.1 12.2 -13.3 C 543.3 225.2 549.1 230.9 549.2 238.2 z" stroke-linecap="round"></path>
</g>
		<g transform="matrix(0.1429 0 0 0.1429 -26.7781 -16.0067)" id="96589">
<radialGradient id="SVGID_18" gradientUnits="userSpaceOnUse" gradientTransform="matrix(1 0 0 1 0 0)" cx="162.4905" cy="237.9116" r="12.3622" fx="162.4905" fy="237.9116">
<stop offset="0.5618%" style="stop-color:rgb(252,172,214);stop-opacity: 1"></stop>
<stop offset="44.940000000000005%" style="stop-color:rgb(249,147,195);stop-opacity: 1"></stop>
<stop offset="100%" style="stop-color:rgb(246,125,181);stop-opacity: 1"></stop>
</radialGradient>
<path style="stroke: none; stroke-width: 1; stroke-dasharray: none; stroke-linecap: butt; stroke-dashoffset: 0; stroke-linejoin: miter; stroke-miterlimit: 4; is-custom-font: none; font-file-url: none; fill: url(#SVGID_18); fill-rule: nonzero; opacity: 1;" transform=" translate(-162.5493, -237.9494)" d="M 174.8 238 c -0.1 7.1 -5.5 12.4 -12.8 12.4 c -6.6 0 -11.8 -5.6 -11.7 -12.6 c 0.1 -6.9 5.6 -12.3 12.5 -12.3 C 169 225.4 174.8 231.4 174.8 238 z" stroke-linecap="round"></path>
</g>
</g>
</g>
<g transform="matrix(5.2326 0 0 1 496.8727 864.5833)" id="191456">
<path style="stroke: none; stroke-width: 1; stroke-dasharray: none; stroke-linecap: butt; stroke-dashoffset: 0; stroke-linejoin: miter; stroke-miterlimit: 4; is-custom-font: none; font-file-url: none; fill: rgb(255,255,255); fill-rule: nonzero; opacity: 1;" vector-effect="non-scaling-stroke" transform=" translate(-43.5, -25)" d="M 87 0 H 0 V 50 H 87 V 0 Z" stroke-linecap="round"></path>
</g>
</svg>